<svg viewBox="12.0 4.1 37.5 30.0" ><path transform="translate(12.0, 4.1)" d="M 28.59590148925781 11.25120449066162 L 19.68889808654785 11.25120449066162 L 19.68889808654785 14.5327320098877 C 19.68889808654785 16.85910224914551 17.7961597442627 18.75184059143066 15.46979331970215 18.75184059143066 C 13.14342308044434 18.75184059143066 11.25068473815918 16.85910224914551 11.25068473815918 14.5327320098877 L 11.25068473815918 7.407129287719727 L 7.447628974914551 9.692479133605957 C 6.31667423248291 10.36636447906494 5.625209331512451 11.59107780456543 5.625209331512451 12.90368843078613 L 5.625209331512451 15.67540740966797 L 0.937312126159668 18.38266754150391 C 0.04075195267796516 18.89833831787109 -0.2698211967945099 20.0468692779541 0.2517073154449463 20.94343185424805 L 4.93960428237915 29.06521224975586 C 5.455272674560547 29.96177291870117 6.603807926177979 30.2664852142334 7.500367164611816 29.75081634521484 L 13.55947494506836 26.25247383117676 L 21.56405830383301 26.25247383117676 C 23.63259124755859 26.25247383117676 25.31437492370605 24.5706901550293 25.31437492370605 22.50215721130371 L 26.251953125 22.50215721130371 C 27.28915023803711 22.50215721130371 28.12711334228516 21.6641960144043 28.12711334228516 20.62699890136719 L 28.12711334228516 16.87668228149414 L 28.59590148925781 16.87668228149414 C 29.37526702880859 16.87668228149414 30.00226783752441 16.24967575073242 30.00226783752441 15.47031307220459 L 30.00226783752441 12.65757369995117 C 30.00226783752441 11.87821197509766 29.37526702880859 11.25120449066162 28.59590148925781 11.25120449066162 Z M 37.25093078613281 9.059614181518555 L 32.56303405761719 0.9378326535224915 C 32.04736709594727 0.04127249121665955 30.89883041381836 -0.2634407877922058 30.00226783752441 0.2522278428077698 L 23.94316482543945 3.750570297241211 L 17.95437812805176 3.750570297241211 C 17.25119209289551 3.750570297241211 16.56558799743652 3.949806213378906 15.96788120269775 4.318977355957031 L 14.0048246383667 5.54369068145752 C 13.45399570465088 5.88356351852417 13.1258430480957 6.487130165100098 13.1258430480957 7.131715774536133 L 13.1258430480957 14.5327320098877 C 13.1258430480957 15.8277645111084 14.17476081848145 16.87668228149414 15.46979331970215 16.87668228149414 C 16.76482200622559 16.87668228149414 17.81373977661133 15.8277645111084 17.81373977661133 14.5327320098877 L 17.81373977661133 9.376047134399414 L 28.59590148925781 9.376047134399414 C 30.40660285949707 9.376047134399414 31.8774299621582 10.84687423706055 31.8774299621582 12.65757369995117 L 31.8774299621582 14.32763671875 L 36.56532669067383 11.62037658691406 C 37.46188735961914 11.09884834289551 37.7666015625 9.956173896789551 37.25093078613281 9.059613227844238 Z" fill="#1ad2d0" stroke="none" stroke-width="1" stroke-miterlimit="4" stroke-linecap="butt" /></svg>