<svg viewBox="0.0 0.0 45.0 45.0" ><path  d="M 22.5 0 C 34.92728424072266 0 45 10.07271671295166 45 22.5 C 45 34.92728424072266 34.92728424072266 45 22.5 45 C 10.07271575927734 45 0 34.92728424072266 0 22.5 C 0 10.07271575927734 10.07271671295166 0 22.5 0 L 22.5 0 Z" fill="#f0b90b" stroke="none" stroke-width="1" stroke-miterlimit="4" stroke-linecap="butt" /><path transform="translate(-513.18, -711.73)" d="M 525.544189453125 734.2327270507812 L 525.5604248046875 740.1822509765625 L 530.6156616210938 743.1569213867188 L 530.6156616210938 746.64013671875 L 522.6018676757812 741.9400634765625 L 522.6018676757812 732.4928588867188 L 525.544189453125 734.2327270507812 L 525.544189453125 734.2327270507812 Z M 525.544189453125 728.283203125 L 525.544189453125 731.7501831054688 L 522.6000366210938 730.008544921875 L 522.6000366210938 726.5416259765625 L 525.544189453125 724.800048828125 L 528.502685546875 726.5416259765625 L 525.544189453125 728.283203125 L 525.544189453125 728.283203125 Z M 532.7268676757812 726.5416259765625 L 535.6709594726562 724.800048828125 L 538.6295776367188 726.5416259765625 L 535.6709594726562 728.283203125 L 532.7268676757812 726.5416259765625 L 532.7268676757812 726.5416259765625 Z" fill="#ffffff" stroke="none" stroke-width="1" stroke-miterlimit="4" stroke-linecap="butt" /><path transform="translate(-789.41, -711.73)" d="M 803.8999633789062 738.9490966796875 L 803.8999633789062 735.4659423828125 L 806.8440551757812 737.20751953125 L 806.8440551757812 740.6744384765625 L 803.8999633789062 738.9490966796875 L 803.8999633789062 738.9490966796875 Z M 808.9552612304688 744.4046020507812 L 811.8993530273438 746.1461181640625 L 814.8578491210938 744.4046020507812 L 814.8578491210938 747.87158203125 L 811.8993530273438 749.6131591796875 L 808.9552612304688 747.87158203125 L 808.9552612304688 744.4046020507812 L 808.9552612304688 744.4046020507812 Z M 819.0802612304688 726.5416259765625 L 822.0243530273438 724.800048828125 L 824.9828491210938 726.5416259765625 L 824.9828491210938 730.008544921875 L 822.0243530273438 731.7501831054688 L 822.0243530273438 728.283203125 L 819.0802612304688 726.5416259765625 L 819.0802612304688 726.5416259765625 L 819.0802612304688 726.5416259765625 Z M 822.0243530273438 740.1822509765625 L 822.0405883789062 734.2327270507812 L 824.9846801757812 732.4910888671875 L 824.9846801757812 741.938232421875 L 816.9708862304688 746.6383666992188 L 816.9708862304688 743.1551513671875 L 822.0243530273438 740.1822509765625 L 822.0243530273438 740.1822509765625 L 822.0243530273438 740.1822509765625 Z" fill="#ffffff" stroke="none" stroke-width="1" stroke-miterlimit="4" stroke-linecap="butt" /><path transform="translate(-1501.24, -1292.67)" d="M 1531.744262695312 1319.88330078125 L 1528.800048828125 1321.608642578125 L 1528.800048828125 1318.1416015625 L 1531.744262695312 1316.400146484375 L 1531.744262695312 1319.88330078125 Z" fill="#ffffff" stroke="none" stroke-width="1" stroke-miterlimit="4" stroke-linecap="butt" /><path transform="translate(-789.41, -387.78)" d="M 819.9131469726562 405.5640563964844 L 819.9293823242188 409.0472412109375 L 814.8596801757812 412.0220031738281 L 814.8596801757812 417.9859313964844 L 811.9155883789062 419.7113037109375 L 808.971435546875 417.9859313964844 L 808.971435546875 412.0220031738281 L 803.9017333984375 409.0472106933594 L 803.9017333984375 405.5640563964844 L 806.8584594726562 403.8224792480469 L 811.8975219726562 406.8116760253906 L 816.9672241210938 403.8224792480469 L 819.92578125 405.5640563964844 L 819.9131469726562 405.5640563964844 L 819.9131469726562 405.5640563964844 Z M 803.8999633789062 399.6163635253906 L 811.8993530273438 394.8999938964844 L 819.9131469726562 399.6163635253906 L 816.9690551757812 401.3579406738281 L 811.8993530273438 398.3687438964844 L 806.8440551757812 401.3579406738281 L 803.8999633789062 399.6163635253906 L 803.8999633789062 399.6163635253906 Z" fill="#ffffff" stroke="none" stroke-width="1" stroke-miterlimit="4" stroke-linecap="butt" /></svg>