<svg viewBox="341.0 155.0 14.0 14.0" ><path transform="translate(6627.5, 281.5)" d="M -6284.4169921875 -112.5019073486328 C -6285.56591796875 -112.5019073486328 -6286.50048828125 -113.4352416992188 -6286.50048828125 -114.5837249755859 L -6286.50048828125 -122.3110809326172 C -6286.50048828125 -123.4595642089844 -6285.56591796875 -124.3928833007812 -6284.4169921875 -124.3928833007812 L -6280.20361328125 -124.3928833007812 C -6279.8291015625 -124.3928833007812 -6279.52587890625 -124.0893859863281 -6279.52587890625 -123.7160491943359 C -6279.52587890625 -123.34130859375 -6279.8291015625 -123.0392150878906 -6280.20361328125 -123.0392150878906 L -6284.4169921875 -123.0392150878906 C -6284.8193359375 -123.0392150878906 -6285.1455078125 -122.7114868164062 -6285.1455078125 -122.3110809326172 L -6285.1455078125 -114.5837249755859 C -6285.1455078125 -114.1833343505859 -6284.8193359375 -113.8570251464844 -6284.4169921875 -113.8570251464844 L -6276.69140625 -113.8570251464844 C -6276.28955078125 -113.8570251464844 -6275.96337890625 -114.1833343505859 -6275.96337890625 -114.5837249755859 L -6275.96337890625 -118.7986450195312 C -6275.96337890625 -119.1734008789062 -6275.65966796875 -119.4754791259766 -6275.2861328125 -119.4754791259766 C -6274.91162109375 -119.4754791259766 -6274.609375 -119.1734008789062 -6274.609375 -118.7986450195312 L -6274.609375 -114.5837249755859 C -6274.609375 -113.4352416992188 -6275.54296875 -112.5019073486328 -6276.69140625 -112.5019073486328 L -6284.4169921875 -112.5019073486328 Z M -6281.38525390625 -117.6173858642578 C -6281.650390625 -117.8824157714844 -6281.650390625 -118.3113250732422 -6281.38525390625 -118.5749359130859 L -6274.81494140625 -125.1452484130859 L -6277.3935546875 -125.1452484130859 C -6277.76708984375 -125.1452484130859 -6278.0703125 -125.4487457275391 -6278.0703125 -125.8235168457031 C -6278.0703125 -126.1968383789062 -6277.76708984375 -126.5003356933594 -6277.3935546875 -126.5003356933594 L -6273.208984375 -126.5003356933594 C -6273.05126953125 -126.5074462890625 -6272.8916015625 -126.4596252441406 -6272.76171875 -126.3568572998047 C -6272.7587890625 -126.3546600341797 -6272.75537109375 -126.3524169921875 -6272.7529296875 -126.3501892089844 C -6272.751953125 -126.3496551513672 -6272.751953125 -126.3491668701172 -6272.7509765625 -126.3486328125 C -6272.59814453125 -126.2244567871094 -6272.50048828125 -126.0352172851562 -6272.50048828125 -125.8235168457031 L -6272.50048828125 -121.6085968017578 C -6272.50048828125 -121.2338409423828 -6272.80419921875 -120.9317474365234 -6273.1787109375 -120.9317474365234 C -6273.55224609375 -120.9317474365234 -6273.85595703125 -121.2338409423828 -6273.85595703125 -121.6085968017578 L -6273.85595703125 -124.1891326904297 L -6280.42724609375 -117.6173858642578 C -6280.55810546875 -117.4848785400391 -6280.732421875 -117.4193267822266 -6280.90625 -117.4193267822266 C -6281.07861328125 -117.4193267822266 -6281.25244140625 -117.4848785400391 -6281.38525390625 -117.6173858642578 Z" fill="#ffffff" stroke="none" stroke-width="1.5" stroke-miterlimit="4" stroke-linecap="round" /></svg>