<svg viewBox="0.0 0.0 20.0 20.0" ><path  d="M 10 0 C 15.52284717559814 0 20 4.477152824401855 20 10 C 20 15.52284717559814 15.52284717559814 20 10 20 C 4.477152824401855 20 0 15.52284717559814 0 10 C 0 4.477152824401855 4.477152824401855 0 10 0 Z" fill="#4e71a8" stroke="none" stroke-width="1" stroke-miterlimit="4" stroke-linecap="butt" /><path transform="translate(-10.56, -6.59)" d="M 23.01666641235352 14.71666622161865 L 21.34999847412109 14.71666622161865 L 21.34999847412109 13.63333320617676 C 21.34999847412109 13.21666526794434 21.64166641235352 13.13333320617676 21.8083324432373 13.13333320617676 C 22.01666641235352 13.13333320617676 22.97499847412109 13.13333320617676 22.97499847412109 13.13333320617676 L 22.97499847412109 11.29999923706055 L 21.34999847412109 11.29999923706055 C 19.51666641235352 11.29999923706055 19.14166450500488 12.67499923706055 19.14166450500488 13.50833225250244 L 19.14166450500488 14.71666526794434 L 18.09999847412109 14.71666526794434 L 18.09999847412109 16.59166717529297 L 19.14166450500488 16.59166717529297 C 19.14166450500488 19.00833129882812 19.14166450500488 21.88333320617676 19.14166450500488 21.88333320617676 L 21.34999847412109 21.88333320617676 C 21.34999847412109 21.88333320617676 21.34999847412109 18.96666717529297 21.34999847412109 16.59166717529297 L 22.84999847412109 16.59166717529297 L 23.01666641235352 14.71666622161865 Z" fill="#ffffff" stroke="none" stroke-width="1" stroke-miterlimit="4" stroke-linecap="butt" /></svg>