<svg viewBox="49.9 533.2 30.0 26.7" ><path transform="translate(49.89, 533.17)" d="M 25.28645896911621 0 L 30 8.333333969116211 L 24.73437690734863 8.333333969116211 L 21.13020896911621 0 L 25.28645896911621 0 Z M 18.61979103088379 0 L 22.22395896911621 8.333333969116211 L 7.776041507720947 8.333333969116211 L 11.38020801544189 0 L 18.61979103088379 0 Z M 4.713541507720947 0 L 8.869791984558105 0 L 5.265625 8.333333969116211 L 0 8.333333969116211 L 4.713541507720947 0 Z M 0 10.00000095367432 L 5.244791507720947 10.00000095367432 L 11.65104293823242 23.10937690734863 C 11.72916793823242 23.27083396911621 11.51041698455811 23.41666793823242 11.39062595367432 23.28125190734863 L 0 10.00000095367432 Z M 7.718750953674316 10.00000095367432 L 22.28125 10.00000095367432 L 15.14583301544189 26.57291793823242 C 15.09374904632568 26.69791603088379 14.91145801544189 26.69791603088379 14.85937404632568 26.57291793823242 L 7.718750953674316 10.00000095367432 Z M 18.34895896911621 23.10937690734863 L 24.75520896911621 10.00000095367432 L 30 10.00000095367432 L 18.609375 23.27604293823242 C 18.48958396911621 23.41666793823242 18.27083206176758 23.27083587646484 18.34895706176758 23.10937690734863 Z" fill="#00a6be" stroke="none" stroke-width="1" stroke-miterlimit="4" stroke-linecap="butt" /></svg>