<svg width="48" height="48.993" viewBox="0 0 48 48.993">
    <defs>
        <linearGradient id="linear-gradient" x1="-0.139" y1="0.038" x2="0.906" y2="0.765" gradientUnits="objectBoundingBox">
            <stop offset="0" stop-color="#f4c91d"/>
            <stop offset="1" stop-color="#feeb4f"/>
        </linearGradient>
        <linearGradient id="linear-gradient-2" x1="0.126" y1="0.881" x2="0.859" y2="0.162" gradientUnits="objectBoundingBox">
            <stop offset="0" stop-color="#f0be0c"/>
            <stop offset="1" stop-color="#ffee54"/>
        </linearGradient>
        <linearGradient id="linear-gradient-3" x1="0.089" y1="0.709" x2="0.921" y2="0.032" gradientUnits="objectBoundingBox">
            <stop offset="0"/>
            <stop offset="1" stop-color="#fffefd"/>
        </linearGradient>
    </defs>
    <path id="path" d="M24,49A24.238,24.238,0,0,0,48,24.531,24.238,24.238,0,0,0,24,.062,24.238,24.238,0,0,0,0,24.531,24.238,24.238,0,0,0,24,49Z" transform="translate(0 -0.007)" fill="url(#linear-gradient)"/>
    <path id="path-1" d="M24,45.3a20.574,20.574,0,0,0,20.371-20.77A20.574,20.574,0,0,0,24,3.761,20.574,20.574,0,0,0,3.628,24.531,20.574,20.574,0,0,0,24,45.3Z" transform="translate(0 -0.007)" fill="url(#linear-gradient-2)"/>
    <path id="path-2" d="M34.658,6.828a20.986,20.986,0,0,1,3.2,11.183,20.573,20.573,0,0,1-20.372,20.77A20,20,0,0,1,6.833,35.714,20.26,20.26,0,0,0,24,45.293a20.572,20.572,0,0,0,20.371-20.77A20.854,20.854,0,0,0,34.658,6.828Z" transform="translate(0 -0.007)" fill="#f4c91d"/>
    <path id="path-3" d="M10.922,31.082l-.052.036a1.775,1.775,0,0,1-.56.247,2.143,2.143,0,0,1-.62.069,2.2,2.2,0,0,1-.536-.092,3.15,3.15,0,0,1-.771-.37c-.106-.07-.2-.139-.288-.208l-.226-.185a8.01,8.01,0,0,1-1.505-1.711,10.668,10.668,0,0,1-1-1.981,12.981,12.981,0,0,1-.605-2.058c-.075-.346-.136-.693-.189-1.04L4.5,23.28l-.053-.516a19.483,19.483,0,0,1,.031-4.146,20.291,20.291,0,0,1,2.57-7.846A19.662,19.662,0,0,1,12.48,4.7a19.076,19.076,0,0,1,9.2-3.545c.242-.029.481-.045.718-.06l.242-.017.476-.023.476-.016a23.493,23.493,0,0,1,3.818.108,17.194,17.194,0,0,1,3.7.825c.6.2,1.179.432,1.754.678.287.124.574.255.854.386s.567.269.847.408l.018.012.019.011.016.008.015.015.037.023.068.047.137.1.272.2.272.208h0c.091.07.181.139.272.224a.229.229,0,0,1,.015.331.224.224,0,0,1-.083.062H35.61c-1.1.455-2.207.909-3.28,1.433a16.285,16.285,0,0,0-2.994,1.842,11.277,11.277,0,0,0-2.328,2.528c-.083.116-.159.239-.234.362h0c-.076.124-.151.247-.219.37-.056.091-.108.186-.158.279l-.054.1c-.034.062-.066.123-.1.185s-.065.123-.1.185c-.121.246-.234.508-.34.763s-.2.524-.28.794a17.48,17.48,0,0,0-.65,3.344c-.06.578-.1,1.156-.143,1.75-.026.4-.045.8-.063,1.208q-.014.289-.028.58l-.045.917c-.015.308-.038.624-.061.932-.045.625-.1,1.264-.181,1.9a19.838,19.838,0,0,1-.854,3.93c-.114.332-.235.663-.371.995s-.287.655-.453.979A11.926,11.926,0,0,1,21.5,31.935c-.106.147-.235.308-.371.463s-.279.308-.438.462a6.426,6.426,0,0,1-1.134.886,4.793,4.793,0,0,1-1.61.609,3.13,3.13,0,0,1-.469.054,2.287,2.287,0,0,1-.234.008h-.234a4.8,4.8,0,0,1-.847-.116,5.608,5.608,0,0,1-1.406-.516c-.113-.059-.224-.121-.333-.185.024.194.052.386.083.578a12.418,12.418,0,0,0,.28,1.295c.011.038.022.077.034.116.049.171.1.346.155.515.019.051.036.1.053.155s.034.1.053.154c.011.027.019.05.027.076s.018.055.033.093a1.9,1.9,0,0,1,.076.224,4.238,4.238,0,0,1,.136.493,2.626,2.626,0,0,1,.06.64,1.671,1.671,0,0,1-.052.408,1.771,1.771,0,0,1-.174.463,1.589,1.589,0,0,1-.325.416,1.659,1.659,0,0,1-.424.285,1.517,1.517,0,0,1-.506.139,1.635,1.635,0,0,1-.476-.023,2.04,2.04,0,0,1-.688-.286,2.254,2.254,0,0,1-.454-.385,2.949,2.949,0,0,1-.347-.455.493.493,0,0,1-.031-.054L11.9,38.4l-.053-.1a1.613,1.613,0,0,1-.1-.2c-.015-.035-.03-.068-.045-.1s-.031-.065-.046-.1l-.021-.048a1.425,1.425,0,0,1-.062-.152,6.694,6.694,0,0,1-.257-.809,11.019,11.019,0,0,1-.257-1.573c-.034-.377-.055-.746-.076-1.113-.007-.128-.014-.255-.022-.382l-.03-.74c0-.123-.006-.246-.008-.369s0-.247-.008-.37Q10.914,31.711,10.922,31.082Z" transform="translate(0 -0.007)" fill="#e0b823"/>
    <path id="path-4" d="M10.922,31.082l1,.012.023-1.969-1.6,1.143Zm-.052.036.562.827h0Zm-.56.247-.247-.969-.008,0Zm-1.156-.023-.3.953.01,0,.011,0Zm-.771-.37-.549.836.008,0ZM8.1,30.764l-.632.775.012.01.013.009Zm-.226-.185-.642.767.01.008ZM6.364,28.868l-.835.55,0,0Zm-1-1.981-.932.364h0ZM4.754,24.83l.979-.2,0-.008Zm-.189-1.041-.991.133v.009l0,.009ZM4.5,23.281l-1,.1,0,.016,0,.015Zm-.053-.517-.995.1v0Zm.031-4.146.993.114v-.005Zm2.57-7.846.866.5h0ZM12.48,4.7l.588.809,0,0Zm7.264-3.236.2.978h.006Zm1.935-.309.107.995.011,0Zm.718-.06L22.33.1h0Zm.242-.017-.048-1h-.025Zm.476-.023-.032-1h-.016Zm.476-.015.033,1h.016Zm3.818.107-.116.994H27.3Zm3.7.825-.325.946.007,0Zm1.754.678-.4.919h0Zm.854.386-.424.9.009,0Zm.847.408.454-.891L35,2.547Zm.037.023-.454.891h0Zm.016.008.713-.7-.114-.117-.145-.074Zm.015.015-.714.7L34,4.278l.106.064Zm.037.024.563-.828-.02-.013-.021-.013Zm.068.046.593-.805-.015-.012-.015-.01Zm.137.1-.593.805h0Zm.272.2.607-.794-.007-.006-.007-.005Zm.272.208-.608.8h0Zm0,0,.607-.795h0Zm.272.223L35,5.021l.015.014.015.013Zm.015.331-.714-.7-.049.051L34.9,4.03Zm-.083.062v1h.24l.214-.109Zm-.008,0v-1h-.2l-.183.075ZM32.33,6.117l-.439-.9h0Zm-5.322,4.37.812.584.01-.013.009-.014Zm-.234.362.832.555.01-.016.01-.016Zm0,0-.832-.554-.012.018-.011.018Zm0,0,.852.522,0,0Zm-.219.369.852.523.012-.02.011-.019ZM26.4,11.5l-.879-.477h0Zm-.054.1.876.483h0Zm-.1.185-.887-.462h0Zm-.1.185-.875-.483-.012.021-.01.022Zm-.34.763-.923-.384-.007.016-.006.017Zm-.28.794.956.3v0Zm-.65,3.344-.994-.1h0Zm-.143,1.75,1,.064h0Zm-.063,1.208-1-.046h0Zm-.028.58-1-.05h0Zm-.045.917-1-.049h0Zm-.061.933-1-.074h0Zm-.181,1.9-.992-.129v.007ZM23.5,28.09l.946.323v0Zm-.824,1.973-.89-.457h0ZM21.5,31.935l-.79-.613-.011.013-.01.015Zm-.809.925.7.718h0Zm-1.134.886.511.86.011-.007Zm-1.61.609-.174-.985-.013,0-.013,0Zm-.469.054-.048-1-.027,0-.026,0Zm-.468.008-.051,1h.051Zm-.847-.116.227-.974-.014,0Zm-1.406-.516.461-.888h0Zm-.333-.185.51-.86L13.175,31.7l.255,2.026Zm.083.578.989-.153,0-.009Zm.28,1.295-.966.258,0,.01,0,.011Zm.034.116.961-.277h0Zm.155.516-.95.31.007.022.007.021Zm.106.308-.936.353.007.017.007.017Zm.06.17-.931.365.007.017.008.017Zm.076.223-.959.282.006.022.007.021Zm.136.493.98-.2,0-.008Zm.06.64-1-.03v.03Zm-.052.408-.969-.25-.006.024-.005.024Zm-.923,1.164-.42-.907-.008,0-.008,0Zm-.506.139.088,1h0Zm-.476-.023-.21.977h0Zm-1.142-.671-.733.68h0Zm-.347-.455.848-.529-.006-.009-.006-.009Zm-.031-.053.9-.441-.027-.055-.034-.052ZM11.9,38.4l-.884.467.022.042.025.039Zm-.053-.1.884-.467-.014-.028-.017-.028Zm-.1-.2-.917.4h0Zm-.091-.2.917-.4h0Zm-.021-.048-.913.408h0ZM11.58,37.7l.951-.311-.009-.027-.011-.027Zm-.257-.809-.97.244h0Zm-.257-1.572-1,.088v.015Zm-.076-1.114-1,.057h0Zm-.022-.382-1,.041v.021Zm-.03-.739-1,.03v.011Zm-.008-.37-1,.015h0Zm-.008-.37-1,.013v.017Zm-.581-2.076-.034.023,1.125,1.654.07-.049Zm-.034.023a.752.752,0,0,1-.244.1l.494,1.938a2.762,2.762,0,0,0,.875-.389Zm-.252.107a1.142,1.142,0,0,1-.326.037l-.078,2a3.191,3.191,0,0,0,.915-.1Zm-.326.037a1.22,1.22,0,0,1-.3-.053L8.874,32.3a3.241,3.241,0,0,0,.777.132Zm-.274-.047a2.121,2.121,0,0,1-.532-.258L7.842,31.813a4.138,4.138,0,0,0,1.011.482Zm-.524-.252c-.071-.047-.135-.095-.228-.167L7.488,31.558c.088.068.206.158.346.25Zm-.2-.147L8.5,29.8l-1.264,1.55.226.185Zm-.217-.177a7.005,7.005,0,0,1-1.313-1.5L5.532,29.422a9.007,9.007,0,0,0,1.7,1.924ZM7.2,28.318a9.6,9.6,0,0,1-.909-1.794l-1.864.727a11.557,11.557,0,0,0,1.1,2.167Zm-.909-1.794a12,12,0,0,1-.558-1.9l-1.957.41a14,14,0,0,0,.651,2.216Zm-.56-1.907c-.07-.32-.126-.645-.177-.979l-1.977.3c.055.36.119.729.2,1.1Zm-.175-.96-.068-.509-1.982.265.068.509Zm-.064-.478-.053-.517-1.989.2.052.516Zm-.053-.514a18.538,18.538,0,0,1,.029-3.933L3.481,18.5a20.5,20.5,0,0,0-.032,4.359Zm.03-3.938a19.193,19.193,0,0,1,.84-3.86l-1.9-.621a21.23,21.23,0,0,0-.928,4.263Zm.84-3.86a19.213,19.213,0,0,1,1.6-3.6l-1.733-1a21.2,21.2,0,0,0-1.77,3.973Zm1.6-3.6a18.687,18.687,0,0,1,5.157-5.763L11.891,3.891a20.661,20.661,0,0,0-5.713,6.382Zm5.16-5.765a17.892,17.892,0,0,1,6.878-3.065L19.538.484a19.9,19.9,0,0,0-7.65,3.409ZM19.955,2.44a18.066,18.066,0,0,1,1.831-.292L21.572.16a19.8,19.8,0,0,0-2.039.325ZM21.8,2.147c.213-.025.425-.039.666-.055L22.33.1c-.233.016-.5.033-.769.065Zm.666-.055.249-.018L22.566.08,22.33.1Zm.225-.016.476-.023-.1-2-.476.023Zm.459-.023.477-.015-.065-2-.476.016Zm.493-.016a22.414,22.414,0,0,1,3.653.1L27.524.153A24.322,24.322,0,0,0,23.543.04Zm3.66.1a16.1,16.1,0,0,1,3.48.776l.651-1.891A18.177,18.177,0,0,0,27.518.152Zm3.487.778c.564.189,1.119.41,1.677.649l.789-1.838c-.59-.253-1.2-.5-1.83-.707Zm1.677.649c.274.118.551.244.825.372l.848-1.811c-.285-.134-.583-.27-.884-.4Zm.834.377c.27.123.535.254.817.394L35,2.547c-.277-.137-.572-.283-.876-.422Zm.807.389a1.015,1.015,0,0,1-.089-.052l1.125-1.654a1.3,1.3,0,0,0-.127-.076Zm-.089-.052a1.411,1.411,0,0,0,.127.075l.909-1.782a.847.847,0,0,1,.089.053Zm.127.075.015.008.909-1.782-.015-.008ZM33.9,4.174l.015.016,1.428-1.4-.016-.015Zm.207.168.038.024,1.043-1.707-.037-.023Zm0,0,.068.046L35.3,2.732l-.068-.047Zm.038.024.136.1,1.185-1.61-.136-.1Zm.136.1.272.2,1.186-1.611-.273-.2Zm.257.19.272.208,1.215-1.589-.272-.208Zm.273.208h0l1.214-1.589h0Zm0,0a2.41,2.41,0,0,1,.2.159L36.369,3.56a4.362,4.362,0,0,0-.348-.287Zm.227.186a.771.771,0,0,1-.046-1.126l1.428,1.4a1.23,1.23,0,0,0-.076-1.789ZM34.9,4.03a.812.812,0,0,1,.268-.237l.908,1.782a1.212,1.212,0,0,0,.434-.36Zm.722-.346H35.61v2h.008Zm-.389.075c-1.1.453-2.231.919-3.338,1.46l.877,1.8c1.041-.508,2.115-.951,3.223-1.407ZM31.888,5.22a17.268,17.268,0,0,0-3.176,1.958L29.96,8.741a15.308,15.308,0,0,1,2.811-1.726ZM28.712,7.178a12.287,12.287,0,0,0-2.535,2.753l1.662,1.113a10.292,10.292,0,0,1,2.121-2.3ZM26.2,9.9c-.108.151-.2.306-.275.424l1.7,1.045c.079-.129.136-.22.194-.3Zm-.254.392h0L27.606,11.4h0Zm-.023.036h0l1.711,1.037h0Zm0,0c-.073.12-.161.262-.242.409l1.751.967c.055-.1.118-.2.2-.331Zm-.219.37c-.072.117-.136.235-.184.324l1.758.955c.052-.1.091-.169.131-.234Zm-.184.324c-.018.034-.035.064-.051.093l1.752.966c.019-.036.039-.072.057-.1Zm-.051.093c-.04.074-.078.146-.109.206l1.773.924c.034-.063.06-.114.088-.164Zm-.109.206-.087.164,1.751.966c.041-.074.078-.146.109-.206Zm-.109.207c-.135.273-.257.557-.366.819l1.846.768c.1-.247.208-.487.315-.707Zm-.379.852c-.1.257-.206.547-.3.85l1.911.589c.073-.236.161-.47.261-.737Zm-.3.848a18.389,18.389,0,0,0-.69,3.537l1.989.209a16.363,16.363,0,0,1,.611-3.153Zm-.69,3.537c-.062.595-.109,1.188-.147,1.79l2,.128c.037-.585.081-1.149.14-1.71Zm-.147,1.79c-.026.412-.045.823-.064,1.226l2,.093c.019-.406.037-.8.062-1.191Zm-.064,1.226c-.009.193-.018.384-.028.576l2,.1c.01-.2.019-.391.028-.583Zm-.028.576-.045.918,2,.1.046-.917Zm-.045.918c-.015.3-.036.6-.059.908l2,.147c.022-.308.046-.635.062-.957Zm-.059.909c-.045.619-.1,1.236-.176,1.847l1.984.258c.086-.668.141-1.331.187-1.96Zm-.177,1.854a18.818,18.818,0,0,1-.809,3.734l1.9.637a20.8,20.8,0,0,0,.9-4.126Zm-.807,3.729c-.11.319-.223.63-.35.938l1.85.76c.146-.356.274-.707.392-1.051Zm-.35.938c-.124.3-.263.6-.418.9l1.779.914c.178-.346.341-.7.489-1.056Zm-.418.9a10.9,10.9,0,0,1-1.079,1.716l1.579,1.227a12.935,12.935,0,0,0,1.279-2.029Zm-1.1,1.744c-.087.12-.195.256-.309.386l1.5,1.323c.158-.178.306-.366.431-.538Zm-.309.386c-.124.14-.25.275-.386.407l1.393,1.435c.182-.177.344-.351.492-.519Zm-.386.407a5.356,5.356,0,0,1-.959.75L20.077,34.6a7.375,7.375,0,0,0,1.308-1.021Zm-.948.744a3.782,3.782,0,0,1-1.273.483l.347,1.97a5.772,5.772,0,0,0,1.948-.734Zm-1.3.488a2.117,2.117,0,0,1-.317.035l.1,2a4.043,4.043,0,0,0,.62-.073Zm-.37.039c-.016,0-.047,0-.133,0v2a3.269,3.269,0,0,0,.336-.013Zm-.133,0h-.234v2h.234Zm-.184,0a3.716,3.716,0,0,1-.67-.091l-.454,1.948a5.879,5.879,0,0,0,1.023.141Zm-.684-.094a4.594,4.594,0,0,1-1.158-.427l-.922,1.775a6.592,6.592,0,0,0,1.653.606ZM15.216,32.9c-.1-.05-.192-.1-.284-.157l-1.02,1.72c.125.074.252.145.382.212Zm-1.786.828c.026.205.055.41.089.615l1.973-.324q-.043-.268-.078-.541Zm.087.606a13.155,13.155,0,0,0,.3,1.4l1.932-.517a11.3,11.3,0,0,1-.257-1.189Zm.308,1.421q.017.056.033.114l1.922-.554c-.012-.039-.023-.079-.035-.118Zm.033.114c.049.169.1.36.166.549l1.9-.621c-.05-.15-.1-.308-.145-.482Zm.18.592c.01.025.02.056.039.112l1.9-.622c-.016-.048-.04-.122-.068-.2Zm.039.112c.015.048.039.121.067.2l1.872-.706c-.01-.026-.02-.056-.038-.112Zm.081.23a.165.165,0,0,0-.007-.016v0s0,.007,0,.014l1.9-.622c-.008-.023-.027-.083-.056-.152Zm0,0c.009.029.026.081.052.148l1.862-.731s0-.01,0-.014,0-.011-.008-.025Zm.067.182s0,0,.006.02.015.045.027.086l1.918-.564a2.776,2.776,0,0,0-.118-.341Zm.046.149a3.1,3.1,0,0,1,.1.377l1.956-.417a5.2,5.2,0,0,0-.168-.61Zm.1.369a1.666,1.666,0,0,1,.041.409l2,.06a3.635,3.635,0,0,0-.08-.87Zm.04.439a.63.63,0,0,1-.021.158l1.937.5a2.621,2.621,0,0,0,.084-.658Zm-.032.206a.772.772,0,0,1-.074.19l1.76.95a2.758,2.758,0,0,0,.273-.735Zm-.074.19a.555.555,0,0,1-.114.147l1.338,1.487a2.586,2.586,0,0,0,.536-.684Zm-.114.147a.658.658,0,0,1-.175.122l.841,1.814a2.633,2.633,0,0,0,.672-.449Zm-.191.13a.5.5,0,0,1-.162.042l.184,1.992a2.522,2.522,0,0,0,.851-.235Zm-.158.042a.625.625,0,0,1-.178-.005l-.42,1.955a2.559,2.559,0,0,0,.774.042Zm-.178-.005A1.04,1.04,0,0,1,13.3,38.5l-1.075,1.687a3.054,3.054,0,0,0,1.016.419ZM13.3,38.5a1.284,1.284,0,0,1-.257-.221L11.58,39.636a3.249,3.249,0,0,0,.649.549Zm-.257-.221a2.03,2.03,0,0,1-.233-.305l-1.7,1.059a3.993,3.993,0,0,0,.463.605Zm-.245-.323a.333.333,0,0,1,.024.039c.007.013.012.023.007.014l-1.8.881a1.553,1.553,0,0,0,.092.161Zm-.03-.054-.03-.046-1.674,1.1.03.046Zm.017.034-.053-.1-1.768.934.053.1Zm-.084-.156,0,0c-.008-.016-.016-.035-.032-.073l-1.834.8a2.593,2.593,0,0,0,.163.324Zm-.034-.077c-.02-.046-.04-.088-.054-.12L10.8,38.42l.036.08Zm-.054-.12c-.016-.034-.027-.057-.037-.08l-1.834.8.055.12Zm-.037-.08-.026-.058-1.825.818c.007.016.013.028.017.039Zm-.026-.058-.022-.05c0-.009,0-.009,0,0l-1.9.622a2.335,2.335,0,0,0,.1.249Zm-.043-.108a5.627,5.627,0,0,1-.218-.689l-1.94.489a7.845,7.845,0,0,0,.3.93Zm-.218-.689a9.862,9.862,0,0,1-.232-1.431l-1.99.207a12.136,12.136,0,0,0,.282,1.713Zm-.231-1.416c-.032-.36-.052-.713-.073-1.082l-2,.114c.021.365.043.749.078,1.145Zm-.073-1.082c-.008-.127-.015-.256-.023-.386l-2,.123c.007.124.014.25.022.377Zm-.022-.365-.03-.74-2,.082.031.739Zm-.03-.73c0-.114-.005-.23-.007-.355l-2,.031c0,.122,0,.253.008.385ZM11.93,32.7c0-.122,0-.253-.008-.385l-2,.061c0,.115.005.23.007.355Zm-.008-.368q-.008-.618,0-1.236l-2-.023q-.008.641,0,1.286Z" transform="translate(0 -0.007)" fill="#e0b823"/>
    <path id="path-5" d="M35.679,3.406C30.932,2.011,26.4,1.372,21.566,2.435a19.525,19.525,0,0,0-15.1,21.857,9.157,9.157,0,0,0,2.918,5.926c1.768,1.4,2.131-1.456,2.169-2.512a31.488,31.488,0,0,1,.786-6.628,66.058,66.058,0,0,0,.189,13.934,7.364,7.364,0,0,0,1.089,3.221c.3.432.9.817,1.3.486s.166-.994-.076-1.464c-1.391-2.721-1.693-5.873-1.814-8.932a36.429,36.429,0,0,1,.431-8.316A16.58,16.58,0,0,1,16.8,12.485a24.873,24.873,0,0,0-3.311,12.631,10.748,10.748,0,0,0,.96,4.9,3.96,3.96,0,0,0,3.447,2.073A3.434,3.434,0,0,0,20.1,30.542c2.034-2.736,2.457-6.335,2.722-9.749s.491-6.99,2.23-9.926C27.4,6.89,31.438,5.056,35.694,3.4,35.679,3.414,35.679,3.414,35.679,3.406Z" transform="translate(0 -0.007)" fill="#fffefd"/>
    <path id="path-6" d="M21.559,2.4A19.578,19.578,0,0,0,9.736,10.32,19.194,19.194,0,0,0,6.426,24.3c.415,2.743,1.406,4.747,2.933,5.957.468.37.876.478,1.217.316.884-.416,1-2.451,1.012-2.851a31.792,31.792,0,0,1,.688-6.22,64.833,64.833,0,0,0,.212,13.533,7.451,7.451,0,0,0,1.1,3.237,1.468,1.468,0,0,0,.884.617.44.44,0,0,0,.1.007.591.591,0,0,0,.37-.13c.333-.27.31-.779-.068-1.511-1.391-2.713-1.693-5.888-1.814-8.917a36.77,36.77,0,0,1,.431-8.3,16.792,16.792,0,0,1,3.182-7.322q-.522.926-.952,1.85c.362-.724.71-1.349.982-1.9l.114-.139.2-.246-.257.185c-1.134.84-3.651,4.054-5.957,9.5-.627,1.48-1.224,2.228-1.64,2.058-.8-.339-.854-4.038.605-7.784,3.069-8.054,9.94-11.1,15.171-12.238A34.354,34.354,0,0,1,35.672,3.46l.015-.077C30.2,1.757,25.845,1.457,21.559,2.4Z" transform="translate(0 -0.007)" opacity="0.16" fill="url(#linear-gradient-3)"/>
</svg>
