<svg viewBox="45.0 325.5 30.0 27.7" ><path transform="translate(4155.0, 318.5)" d="M -4089.00048828125 34.69569396972656 L -4089.00048828125 31.24953842163086 L -4084.23291015625 31.24953842163086 C -4083.740966796875 31.24953842163086 -4083.374755859375 30.87717628479004 -4083.374755859375 30.39238357543945 L -4083.374755859375 25.6950511932373 L -4079.999755859375 25.6950511932373 L -4079.999755859375 30.39238357543945 C -4079.999755859375 32.74723815917969 -4081.876953125 34.69569396972656 -4084.23291015625 34.69569396972656 L -4089.00048828125 34.69569396972656 Z M -4105.69677734375 34.69569396972656 C -4108.0517578125 34.69569396972656 -4110 32.74723815917969 -4110 30.39238357543945 L -4110 25.6950511932373 L -4106.625 25.6950511932373 L -4106.625 30.39238357543945 C -4106.625 30.88439559936523 -4106.2529296875 31.24953842163086 -4105.76708984375 31.24953842163086 L -4100.99951171875 31.24953842163086 L -4100.99951171875 34.69569396972656 L -4105.69677734375 34.69569396972656 Z M -4109.5 21.84868431091309 L -4109.5 19.84865570068359 L -4080.5 19.84865570068359 L -4080.5 21.84868431091309 L -4109.5 21.84868431091309 Z M -4083.374755859375 16.00332069396973 L -4083.374755859375 11.23584651947021 C -4083.374755859375 10.74383354187012 -4083.789306640625 10.37766075134277 -4084.275146484375 10.37766075134277 L -4089.00048828125 10.37766075134277 L -4089.00048828125 7.002677440643311 L -4084.246337890625 7.002677440643311 C -4081.898681640625 7.002677440643311 -4079.999755859375 8.879960060119629 -4079.999755859375 11.23584651947021 L -4079.999755859375 16.00332069396973 L -4083.374755859375 16.00332069396973 Z M -4110 16.00332069396973 L -4110 11.23584651947021 C -4110 8.879960060119629 -4108.0517578125 7.002677440643311 -4105.69677734375 7.002677440643311 L -4100.99951171875 7.002677440643311 L -4100.99951171875 10.37766075134277 L -4105.76708984375 10.37766075134277 C -4106.25927734375 10.37766075134277 -4106.625 10.75105381011963 -4106.625 11.23584651947021 L -4106.625 16.00332069396973 L -4110 16.00332069396973 Z" fill="#00a6be" stroke="none" stroke-width="1" stroke-miterlimit="4" stroke-linecap="butt" /></svg>