<svg viewBox="54.0 144.0 321.0 156.0" ><path transform="translate(4125.0, 25.0)" d="M -3959.28076171875 275.0033569335938 C -4022.741943359375 263.9691772460938 -4071.000244140625 208.6201629638672 -4071.000244140625 142.0030364990234 C -4071.000244140625 134.1621398925781 -4070.331787109375 126.4779815673828 -4069.048828125 119.0032272338867 L -3802.951904296875 119.0032272338867 C -3801.6689453125 126.4779815673828 -3801.00048828125 134.1621398925781 -3801.00048828125 142.0030364990234 C -3801.00048828125 208.6201629638672 -3849.2578125 263.9691772460938 -3912.71875 275.0033569335938 L -3959.28076171875 275.0033569335938 Z" fill="#ffffff" fill-opacity="0.08" stroke="none" stroke-width="1" stroke-opacity="0.08" stroke-miterlimit="4" stroke-linecap="butt" /><path transform="translate(4125.0, 89.0)" d="M -3960.797119140625 211.0024566650391 C -3983.69921875 189.4786376953125 -3997.999755859375 158.9126434326172 -3997.999755859375 125.0033111572266 C -3997.999755859375 98.79865264892578 -3989.455322265625 74.58558654785156 -3975.004150390625 55.00335311889648 L -3784.995849609375 55.00335311889648 C -3770.544677734375 74.58558654785156 -3762.00048828125 98.79865264892578 -3762.00048828125 125.0033111572266 C -3762.00048828125 158.9126434326172 -3776.30078125 189.4786376953125 -3799.203125 211.0024566650391 L -3960.797119140625 211.0024566650391 Z" fill="#ffffff" fill-opacity="0.1" stroke="none" stroke-width="1" stroke-opacity="0.1" stroke-miterlimit="4" stroke-linecap="butt" /><path transform="translate(4125.0, 89.0)" d="M -3931.999755859375 98.00241088867188 C -3931.999755859375 82.45030212402344 -3928.097412109375 67.80779266357422 -3921.219970703125 55.00335311889648 L -3760.780029296875 55.00335311889648 C -3753.902587890625 67.80779266357422 -3750.000244140625 82.45030212402344 -3750.000244140625 98.00241088867188 C -3750.000244140625 148.260986328125 -3790.742431640625 189.003173828125 -3841 189.003173828125 C -3891.257568359375 189.003173828125 -3931.999755859375 148.260986328125 -3931.999755859375 98.00241088867188 Z" fill="#ffffff" fill-opacity="0.15" stroke="none" stroke-width="1" stroke-opacity="0.15" stroke-miterlimit="4" stroke-linecap="butt" /></svg>