<svg viewBox="0.0 0.0 45.0 39.1" ><path  d="M 8.24455738067627 0.1920714229345322 L 0.03921357169747353 17.42740249633789 C -0.02487614937126637 17.55898666381836 0.004140055272728205 17.71696662902832 0.1108059138059616 17.81718826293945 L 22.27146530151367 39.05244064331055 C 22.40225791931152 39.1778678894043 22.60868072509766 39.1778678894043 22.73947143554688 39.05244064331055 L 44.90013122558594 17.81851005554199 C 45.00679397583008 17.71829414367676 45.03581237792969 17.56031227111816 44.97172546386719 17.4287281036377 L 36.76638412475586 0.1933960765600204 C 36.71229934692383 0.07517550140619278 36.59410095214844 -0.0005129583878442645 36.46409606933594 -0.0001687951589701697 L 8.54948902130127 -0.0001688267657300457 C 8.418838500976562 -0.001794245908968151 8.299424171447754 0.07348883897066116 8.24455738067627 0.1920714527368546 L 8.244556427001953 0.1920714229345322 Z" fill="#50af95" stroke="none" stroke-width="1" stroke-miterlimit="4" stroke-linecap="butt" /><path transform="translate(-55.61, -34.9)" d="M 80.95819091796875 54.09383392333984 L 80.95819091796875 54.09383392333984 C 80.79910278320312 54.10576629638672 79.97711181640625 54.15482330322266 78.14353179931641 54.15482330322266 C 76.68515777587891 54.15482330322266 75.64971160888672 54.1110725402832 75.28644561767578 54.09383392333984 L 75.28644561767578 54.09383392333984 C 69.65048980712891 53.84591293334961 65.44374847412109 52.86482238769531 65.44374847412109 51.69017028808594 C 65.44374847412109 50.51551818847656 69.65048980712891 49.5357551574707 75.28644561767578 49.28385162353516 L 75.28644561767578 53.11672592163086 C 75.65501403808594 53.14324188232422 76.71035003662109 53.2055549621582 78.16872406005859 53.2055549621582 C 79.91876983642578 53.2055549621582 80.79512023925781 53.13263702392578 80.95289611816406 53.11804962158203 L 80.95289611816406 49.28650665283203 C 86.57691192626953 49.53707885742188 90.77438354492188 50.51816558837891 90.77438354492188 51.69017028808594 C 90.77438354492188 52.8621711730957 86.57823944091797 53.84326171875 80.95289611816406 54.09251022338867 L 80.95289611816406 54.09251022338867 Z M 80.95819091796875 48.89009094238281 L 80.95819091796875 45.46025848388672 L 88.80690002441406 45.46025848388672 L 88.80690002441406 40.22999954223633 L 67.43773651123047 40.22999954223633 L 67.43773651123047 45.46025848388672 L 75.28511810302734 45.46025848388672 L 75.28511810302734 48.88876724243164 C 68.90672302246094 49.18176651000977 64.10999298095703 50.44524765014648 64.10999298095703 51.95930480957031 C 64.10999298095703 53.47336578369141 68.90672302246094 54.73551940917969 75.28511810302734 55.02984619140625 L 75.28511810302734 66.02069091796875 L 80.95686340332031 66.02069091796875 L 80.95686340332031 55.02587127685547 C 87.3206787109375 54.73286819458008 92.10945129394531 53.47071075439453 92.10945129394531 51.95798110961914 C 92.10945129394531 50.44524765014648 87.32466125488281 49.18309020996094 80.95686340332031 48.88876724243164 L 80.95686340332031 48.88876724243164 Z M 80.95819091796875 48.89009094238281 L 80.95819091796875 48.89009094238281 Z" fill="#ffffff" stroke="none" stroke-width="1" stroke-miterlimit="4" stroke-linecap="butt" /></svg>