<svg xmlns="http://www.w3.org/2000/svg" width="177" height="191.03" viewBox="0 0 177 191.03"><g transform="translate(-18.802 0)"><g transform="translate(18.802 0)"><path d="M195.8,65.279,120.533,4.667a21.09,21.09,0,0,0-26.455,0L18.807,65.279V170.271a20.762,20.762,0,0,0,20.762,20.762H175.043a20.762,20.762,0,0,0,20.762-20.762V65.279Z" transform="translate(-18.805 -0.002)" fill="#b1e4f9"/><path d="M55.909,300.708H39.562a20.759,20.759,0,0,1-20.76-20.76V174.954H35.149V279.948A20.76,20.76,0,0,0,55.909,300.708Z" transform="translate(-18.802 -109.677)" fill="#90d8f9"/><path d="M195.8,65.277,175.4,81.7l-54.871,29.018a21.088,21.088,0,0,1-26.456,0L39.2,81.7,18.8,65.276,94.075,4.665a21.088,21.088,0,0,1,26.456,0Z" transform="translate(-18.803 0)" fill="#90d8f9"/><g transform="translate(40.177 147.38)"><path d="M326.756,422.908a2.871,2.871,0,0,1-1.806-.638l-27.49-22.137a2.883,2.883,0,0,1,3.616-4.491l27.49,22.136a2.883,2.883,0,0,1-1.81,5.129Z" transform="translate(-232.993 -395.006)" fill="#90d8f9"/><path d="M129.368,422.909a2.883,2.883,0,0,1-1.81-5.128l27.49-22.136a2.883,2.883,0,0,1,3.616,4.491l-27.49,22.137a2.875,2.875,0,0,1-1.806.637Z" transform="translate(-126.484 -395.006)" fill="#90d8f9"/></g><g transform="translate(20.401 10.976)"><path d="M209.68,64.695v35.451L154.809,144.33a21.088,21.088,0,0,1-26.456,0L73.481,100.146V42.159A12.741,12.741,0,0,1,86.222,29.418H174.4Z" transform="translate(-73.481 -29.418)" fill="#f9f6f9"/><path d="M209.68,178.331V193.5l-54.871,44.184a21.088,21.088,0,0,1-26.456,0L73.481,193.5V178.331l54.871,44.184a21.088,21.088,0,0,0,26.456,0Z" transform="translate(-73.481 -122.77)" fill="#dddaec"/><path d="M379.244,64.694H356.706a12.74,12.74,0,0,1-12.74-12.74V29.417" transform="translate(-243.046 -29.417)" fill="#dddaec"/></g><g transform="translate(65.335 32.168)"><path d="M215.824,134.626a8.2,8.2,0,0,1-6.48-3.176l-13.712-17.687a8.2,8.2,0,0,1,12.962-10.049l6.156,7.94,12.012-21.269a8.2,8.2,0,1,1,14.281,8.065l-18.077,32.008a8.2,8.2,0,0,1-6.545,4.146Q216.121,134.626,215.824,134.626Z" transform="translate(-193.912 -86.215)" fill="#b3e59f"/></g><g transform="translate(59.131 90.052)"><path d="M233.141,247.12H180.168a2.883,2.883,0,1,1,0-5.765h52.974a2.883,2.883,0,1,1,0,5.765Z" transform="translate(-177.285 -241.355)" fill="#687780"/><path d="M238.947,278.234h-35.9a2.883,2.883,0,0,1,0-5.765h35.9a2.883,2.883,0,0,1,0,5.765Z" transform="translate(-191.628 -260.86)" fill="#687780"/></g></g></g></svg>