<svg viewBox="107.2 324.0 37.6 30.0" ><path transform="translate(104.12, 316.28)" d="M 39.26761245727539 7.716008186340332 L 27.79417991638184 7.716008186340332 C 27.0053825378418 7.716008186340332 25.90363502502441 8.172374725341797 25.34585762023926 8.730151176452637 L 11.12012386322021 22.95588874816895 C 10.56234836578369 23.5136661529541 10.56234836578369 24.42634201049805 11.12012386322021 24.98411750793457 L 23.43368148803711 37.29767227172852 C 23.991455078125 37.85544967651367 24.90413093566895 37.85544967651367 25.46190643310547 37.29767227172852 L 39.68770599365234 23.07187652587891 C 40.24542236328125 22.51415824890137 40.70178985595703 21.41241073608398 40.70178985595703 20.62361335754395 L 40.70178985595703 9.150186538696289 C 40.70178985595703 8.361388206481934 40.0564079284668 7.716008186340332 39.26761245727539 7.716008186340332 Z M 32.09671783447266 19.18943786621094 C 30.51254272460938 19.18943786621094 29.22835731506348 17.90525054931641 29.22835731506348 16.32107925415039 C 29.22835731506348 14.73690795898438 30.51254272460938 13.45272445678711 32.09671783447266 13.45272445678711 C 33.68088150024414 13.45272445678711 34.96506881713867 14.73690795898438 34.96506881713867 16.32107925415039 C 34.96506881713867 17.90525054931641 33.68088150024414 19.18943786621094 32.09671783447266 19.18943786621094 Z M 6.281502246856689 23.97002983093262 L 22.53552436828613 7.716008186340332 L 20.14522743225098 7.716008186340332 C 19.3564281463623 7.716008186340332 18.25468063354492 8.172374725341797 17.6969051361084 8.730151176452637 L 3.471171140670776 22.95588874816895 C 2.913394927978516 23.5136661529541 2.913394927978516 24.42634201049805 3.471171140670776 24.98411750793457 L 15.78472805023193 37.29767227172852 C 16.34250450134277 37.85544967651367 17.25518035888672 37.85544967651367 17.81295585632324 37.29767227172852 L 18.71105003356934 36.39958190917969 L 6.281503200531006 23.97002983093262 Z" fill="#2ccfd2" stroke="none" stroke-width="1" stroke-miterlimit="4" stroke-linecap="butt" /></svg>