<svg viewBox="15.0 137.0 360.0 63.0" ><path transform="translate(5965.0, 112.0)" d="M -5741.70947265625 88.00039672851562 C -5741.3212890625 87.3568115234375 -5740.94775390625 86.68484497070312 -5740.59716796875 86.00093078613281 L -5589.99951171875 86.00093078613281 L -5589.99951171875 87.99890899658203 L -5589.99951171875 88.00039672851562 L -5741.70947265625 88.00039672851562 Z M -5798.29052734375 88.00039672851562 L -5798.2890625 88.00039672851562 Z M -5798.2890625 88.00039672851562 Z M -5950.00048828125 88.00039672851562 L -5950.00048828125 86.00093078613281 L -5799.4013671875 86.00093078613281 C -5799.05517578125 86.67588806152344 -5798.681640625 87.34934234619141 -5798.29052734375 87.99890899658203 L -5798.2890625 88.00039672851562 L -5950.00048828125 88.00039672851562 Z M -5738.541015625 81.00003051757812 C -5738.33642578125 80.35195922851562 -5738.14501953125 79.67999267578125 -5737.9765625 79.00056457519531 L -5589.99951171875 79.00056457519531 L -5589.99951171875 80.99853515625 L -5589.99951171875 81.00003051757812 L -5738.541015625 81.00003051757812 Z M -5801.458984375 81.00003051757812 L -5801.45751953125 81.00003051757812 Z M -5801.45751953125 81.00003051757812 L -5950.00048828125 81.00003051757812 L -5950.00048828125 79.00056457519531 L -5802.0234375 79.00056457519531 C -5801.85791015625 79.66506195068359 -5801.66796875 80.33702087402344 -5801.45751953125 80.99853515625 L -5801.45751953125 81.00003051757812 Z M -5802.76123046875 75.00163269042969 L -5950.00048828125 75.00013732910156 L -5950.00048828125 39.99977493286133 C -5950.00048828125 35.99337768554688 -5948.43994140625 32.22589874267578 -5945.60595703125 29.39319610595703 C -5942.77294921875 26.56049537658691 -5939.005859375 25.00004577636719 -5935.00048828125 25.00004577636719 L -5605.00048828125 25.00004577636719 C -5600.994140625 25.00004577636719 -5597.22705078125 26.56049537658691 -5594.392578125 29.39319610595703 C -5591.56005859375 32.22589874267578 -5589.99951171875 35.99337768554688 -5589.99951171875 39.99977493286133 L -5589.99951171875 75.00013732910156 L -5737.23876953125 75.00013732910156 C -5737.08056640625 73.68607330322266 -5737 72.33915710449219 -5737 70.99971008300781 C -5737 66.54533386230469 -5737.8720703125 62.22386169433594 -5739.59228515625 58.15474700927734 C -5741.25537109375 54.22450637817383 -5743.63427734375 50.69594955444336 -5746.6640625 47.6661376953125 C -5749.6953125 44.63483428955078 -5753.22412109375 42.25608062744141 -5757.154296875 40.59408950805664 C -5761.22314453125 38.87236785888672 -5765.544921875 38.00030899047852 -5770.00048828125 38.00030899047852 C -5774.455078125 38.00030899047852 -5778.7763671875 38.87236785888672 -5782.845703125 40.59408950805664 C -5786.7744140625 42.25458526611328 -5790.30322265625 44.63483428955078 -5793.33447265625 47.6661376953125 C -5796.3642578125 50.69594955444336 -5798.744140625 54.22450637817383 -5800.40625 58.15474700927734 C -5802.12646484375 62.22386169433594 -5803 66.54533386230469 -5803 70.99971008300781 C -5803 72.33617401123047 -5802.91943359375 73.68309020996094 -5802.759765625 75.00013732910156 L -5802.759765625 75.00163269042969 Z" fill="#ffffff" fill-opacity="0.25" stroke="none" stroke-width="2" stroke-miterlimit="4" stroke-linecap="butt" /></svg>