<svg xmlns="http://www.w3.org/2000/svg" xmlns:xlink="http://www.w3.org/1999/xlink" width="360" height="180" viewBox="0 0 360 180"><defs><clipPath id="a"><rect width="360" height="180" rx="15" fill="none"/></clipPath></defs><g clip-path="url(#a)"><g transform="translate(39 -106.105)" opacity="0.504"><path d="M127.895,0A127.895,127.895,0,1,1,0,127.895,127.895,127.895,0,0,1,127.895,0Z" transform="translate(0 0)" fill="#fff" opacity="0.079"/><path d="M111.789,0A111.789,111.789,0,1,1,0,111.789,111.789,111.789,0,0,1,111.789,0Z" transform="translate(73 60.632)" fill="#fff" opacity="0.1"/><path d="M86.211,0A86.211,86.211,0,1,1,0,86.211,86.211,86.211,0,0,1,86.211,0Z" transform="translate(139 60.632)" fill="#fff" opacity="0.15"/></g></g></svg>